<?xml version="1.0" encoding="UTF-8"?>
<svg xmlns="http://www.w3.org/2000/svg" xmlns:xlink="http://www.w3.org/1999/xlink" width="500px" height="257px" viewBox="0 0 500 257" version="1.1">
<g id="surface1">
<path style=" stroke:none;fill-rule:nonzero;fill:rgb(0%,58.431373%,71.372549%);fill-opacity:1;" d="M 188.25 35.871094 L 202.527344 35.871094 C 206.46875 35.871094 209.667969 39.074219 209.667969 43.019531 C 209.667969 46.964844 206.46875 50.164062 202.527344 50.164062 L 188.25 50.164062 C 184.308594 50.164062 181.113281 46.964844 181.113281 43.019531 C 181.113281 39.074219 184.308594 35.871094 188.25 35.871094 Z M 188.25 35.871094 "/>
<path style=" stroke:none;fill-rule:nonzero;fill:rgb(0%,58.431373%,71.372549%);fill-opacity:1;" d="M 188.25 64.453125 L 202.527344 64.453125 C 206.46875 64.453125 209.667969 67.652344 209.667969 71.597656 C 209.667969 75.542969 206.46875 78.742188 202.527344 78.742188 L 188.25 78.742188 C 184.308594 78.742188 181.113281 75.542969 181.113281 71.597656 C 181.113281 67.652344 184.308594 64.453125 188.25 64.453125 Z M 188.25 64.453125 "/>
<path style=" stroke:none;fill-rule:nonzero;fill:rgb(0%,58.431373%,71.372549%);fill-opacity:1;" d="M 188.25 93.03125 L 202.527344 93.03125 C 206.46875 93.03125 209.667969 96.230469 209.667969 100.175781 C 209.667969 104.125 206.46875 107.324219 202.527344 107.324219 L 188.25 107.324219 C 184.308594 107.324219 181.113281 104.125 181.113281 100.175781 C 181.113281 96.230469 184.308594 93.03125 188.25 93.03125 Z M 188.25 93.03125 "/>
<path style=" stroke:none;fill-rule:nonzero;fill:rgb(0%,58.431373%,71.372549%);fill-opacity:1;" d="M 285.644531 142.726562 L 285.644531 143.046875 L 295.640625 143.046875 L 295.640625 142.726562 C 295.640625 129.898438 306.066406 119.46875 318.875 119.46875 L 318.875 109.464844 C 300.550781 109.464844 285.644531 124.386719 285.644531 142.726562 Z M 285.644531 142.726562 "/>
<path style=" stroke:none;fill-rule:nonzero;fill:rgb(0%,58.431373%,71.372549%);fill-opacity:1;" d="M 482.847656 256.808594 L 453.289062 256.808594 C 448.703125 256.808594 444.390625 255.019531 441.152344 251.769531 C 437.910156 248.523438 436.132812 244.207031 436.140625 239.617188 L 436.167969 220.738281 C 436.179688 211.285156 443.875 203.597656 453.320312 203.597656 L 482.847656 203.597656 C 492.308594 203.597656 500.003906 211.296875 500.003906 220.765625 L 500.003906 239.644531 C 500.003906 249.109375 492.308594 256.808594 482.847656 256.808594 Z M 453.316406 214.25 C 449.734375 214.25 446.816406 217.167969 446.8125 220.75 L 446.785156 239.632812 C 446.78125 241.371094 447.457031 243.007812 448.683594 244.242188 C 449.914062 245.472656 451.550781 246.152344 453.289062 246.152344 L 482.847656 246.152344 C 486.433594 246.152344 489.355469 243.230469 489.355469 239.640625 L 489.355469 220.761719 C 489.355469 217.171875 486.433594 214.25 482.847656 214.25 Z M 453.316406 214.25 "/>
<path style=" stroke:none;fill-rule:nonzero;fill:rgb(0%,58.431373%,71.372549%);fill-opacity:1;" d="M 416.515625 185.769531 L 421.449219 185.769531 C 423.027344 185.769531 424.304688 187.050781 424.304688 188.628906 L 424.304688 193.566406 C 424.304688 195.144531 423.027344 196.425781 421.449219 196.425781 L 416.515625 196.425781 C 414.9375 196.425781 413.660156 195.144531 413.660156 193.566406 L 413.660156 188.628906 C 413.660156 187.050781 414.9375 185.769531 416.515625 185.769531 Z M 416.515625 185.769531 "/>
<path style=" stroke:none;fill-rule:nonzero;fill:rgb(0%,58.431373%,71.372549%);fill-opacity:1;" d="M 413.664062 203.53125 L 424.308594 203.53125 L 424.308594 256.753906 L 413.664062 256.753906 Z M 413.664062 203.53125 "/>
<path style=" stroke:none;fill-rule:nonzero;fill:rgb(27.843137%,27.843137%,27.843137%);fill-opacity:1;" d="M 264.835938 133.042969 C 269.550781 107.46875 291.980469 88.03125 318.875 88.03125 L 318.882812 98.035156 C 294.074219 98.035156 273.902344 118.226562 273.902344 143.042969 L 209.667969 143.042969 C 199.039062 143.042969 190.394531 134.390625 190.394531 123.753906 L 190.394531 107.324219 L 200.390625 107.324219 L 200.390625 123.753906 C 200.390625 128.875 204.550781 133.039062 209.664062 133.042969 Z M 264.835938 133.042969 "/>
<path style=" stroke:none;fill-rule:nonzero;fill:rgb(27.843137%,27.843137%,27.843137%);fill-opacity:1;" d="M 318.886719 19.460938 C 318.886719 8.828125 310.238281 0.175781 299.609375 0.175781 L 209.664062 0.175781 C 204.515625 0.175781 199.675781 2.179688 196.035156 5.824219 C 192.394531 9.46875 190.390625 14.3125 190.390625 19.46875 L 190.390625 35.875 L 200.382812 35.875 L 200.382812 19.464844 C 200.382812 16.984375 201.347656 14.652344 203.101562 12.898438 C 204.851562 11.140625 207.183594 10.175781 209.664062 10.175781 L 299.609375 10.175781 C 304.726562 10.175781 308.890625 14.34375 308.890625 19.464844 L 308.890625 67.273438 C 277.171875 71.4375 251.542969 95.152344 244.46875 125.898438 L 254.746094 125.898438 C 262.324219 97.546875 288.191406 76.601562 318.875 76.601562 L 318.875 71.601562 L 318.882812 71.601562 L 318.882812 19.460938 Z M 318.886719 19.460938 "/>
<path style=" stroke:none;fill-rule:nonzero;fill:rgb(27.843137%,27.843137%,27.843137%);fill-opacity:1;" d="M 336.886719 256.816406 L 326.242188 256.804688 L 326.289062 220.742188 C 326.304688 211.289062 334 203.59375 343.441406 203.59375 L 378.265625 203.59375 L 378.265625 214.25 L 343.441406 214.25 C 339.859375 214.25 336.941406 217.171875 336.9375 220.753906 Z M 336.886719 256.816406 "/>
<path style=" stroke:none;fill-rule:nonzero;fill:rgb(27.843137%,27.843137%,27.843137%);fill-opacity:1;" d="M 221.1875 203.59375 L 185.128906 203.59375 L 185.144531 185.773438 L 174.5 185.765625 L 174.433594 256.804688 L 185.082031 256.8125 L 185.117188 214.25 L 221.1875 214.25 C 224.769531 214.25 227.691406 217.171875 227.691406 220.761719 L 227.691406 256.808594 L 238.335938 256.808594 L 238.335938 220.761719 C 238.335938 211.296875 230.644531 203.59375 221.1875 203.59375 Z M 221.1875 203.59375 "/>
<path style=" stroke:none;fill-rule:nonzero;fill:rgb(27.843137%,27.843137%,27.843137%);fill-opacity:1;" d="M 314.417969 220.65625 C 314.402344 211.207031 306.707031 203.515625 297.261719 203.515625 L 262.363281 203.515625 L 262.363281 214.171875 L 297.261719 214.171875 C 300.84375 214.171875 303.761719 217.085938 303.769531 220.671875 L 303.777344 224.835938 L 266.496094 224.835938 C 262.234375 224.835938 258.226562 226.5 255.214844 229.523438 C 252.199219 232.539062 250.542969 236.550781 250.546875 240.824219 C 250.558594 249.617188 257.714844 256.769531 266.5 256.769531 L 298.496094 256.769531 C 302.761719 256.769531 306.769531 255.105469 309.785156 252.085938 C 312.796875 249.066406 314.457031 245.050781 314.449219 240.78125 Z M 302.25 244.554688 C 301.246094 245.558594 299.914062 246.113281 298.492188 246.113281 L 266.496094 246.113281 C 263.578125 246.113281 261.195312 243.730469 261.191406 240.808594 C 261.191406 239.390625 261.742188 238.054688 262.746094 237.050781 C 263.746094 236.046875 265.082031 235.492188 266.496094 235.492188 L 303.792969 235.492188 L 303.800781 240.796875 C 303.800781 242.214844 303.25 243.550781 302.25 244.554688 Z M 302.25 244.554688 "/>
<path style=" stroke:none;fill-rule:nonzero;fill:rgb(27.843137%,27.843137%,27.843137%);fill-opacity:1;" d="M 162.546875 256.824219 L 115.847656 256.824219 C 111.265625 256.824219 106.953125 255.035156 103.714844 251.789062 C 100.472656 248.539062 98.691406 244.222656 98.699219 239.632812 L 98.722656 220.714844 C 98.742188 211.261719 106.4375 203.570312 115.878906 203.570312 L 162.605469 203.570312 L 162.605469 214.226562 L 115.878906 214.226562 C 112.296875 214.226562 109.378906 217.144531 109.371094 220.730469 L 109.347656 239.652344 C 109.34375 241.390625 110.019531 243.03125 111.246094 244.261719 C 112.476562 245.492188 114.113281 246.171875 115.851562 246.171875 L 162.546875 246.171875 L 162.546875 256.828125 Z M 162.546875 256.824219 "/>
<path style=" stroke:none;fill-rule:nonzero;fill:rgb(27.843137%,27.843137%,27.843137%);fill-opacity:1;" d="M 78.816406 185.769531 L 83.746094 185.769531 C 85.324219 185.769531 86.605469 187.050781 86.605469 188.628906 L 86.605469 193.566406 C 86.605469 195.144531 85.324219 196.425781 83.746094 196.425781 L 78.816406 196.425781 C 77.238281 196.425781 75.957031 195.144531 75.957031 193.566406 L 75.957031 188.628906 C 75.957031 187.050781 77.238281 185.769531 78.816406 185.769531 Z M 78.816406 185.769531 "/>
<path style=" stroke:none;fill-rule:nonzero;fill:rgb(27.843137%,27.843137%,27.843137%);fill-opacity:1;" d="M 75.957031 203.53125 L 86.605469 203.53125 L 86.605469 256.753906 L 75.957031 256.753906 Z M 75.957031 203.53125 "/>
<path style=" stroke:none;fill-rule:nonzero;fill:rgb(27.843137%,27.843137%,27.843137%);fill-opacity:1;" d="M 392.953125 244.96875 L 399.070312 244.96875 C 400.648438 244.96875 401.925781 246.25 401.925781 247.828125 L 401.925781 253.949219 C 401.925781 255.527344 400.648438 256.808594 399.070312 256.808594 L 392.953125 256.808594 C 391.375 256.808594 390.097656 255.527344 390.097656 253.949219 L 390.097656 247.828125 C 390.097656 246.25 391.375 244.96875 392.953125 244.96875 Z M 392.953125 244.96875 "/>
<path style=" stroke:none;fill-rule:nonzero;fill:rgb(27.843137%,27.843137%,27.843137%);fill-opacity:1;" d="M 17.152344 196.445312 L 63.867188 196.445312 L 63.867188 185.789062 L 17.152344 185.789062 C 7.695312 185.789062 0 193.488281 0 202.953125 L 0 256.757812 L 10.644531 256.757812 L 10.644531 226.621094 L 52.035156 226.621094 L 52.035156 215.964844 L 10.644531 215.964844 L 10.644531 202.953125 C 10.644531 199.363281 13.566406 196.445312 17.152344 196.445312 Z M 17.152344 196.445312 "/>
</g>
</svg>
